<?xml version="1.0" encoding="UTF-8"?>
<svg xmlns="http://www.w3.org/2000/svg" xmlns:xlink="http://www.w3.org/1999/xlink" width="2829" height="3000" viewBox="0 0 2829 3000">
<path fill-rule="nonzero" fill="rgb(0%, 0%, 0%)" fill-opacity="1" d="M 1412.890625 2949.769531 C 1383.011719 2795.421875 1327.398438 2297.417969 1292.441406 1871.160156 L 1283.429688 1761.289062 L 1190.128906 1835.28125 C 1138.820312 1875.980469 1050.210938 1944.808594 993.238281 1988.21875 C 873.328125 2079.585938 548.105469 2335.980469 420.585938 2439.679688 C 372.464844 2478.808594 340.296875 2501.414062 349.097656 2489.910156 C 527.316406 2256.972656 695.800781 2053.902344 924.886719 1795.929688 C 1037.25 1669.390625 1124.441406 1561.640625 1118.628906 1556.488281 C 1112.828125 1551.328125 914.902344 1529.640625 678.796875 1508.289062 C 234.691406 1468.128906 -7.601562 1441.511719 0.183594 1433.730469 C 4.910156 1429 475.515625 1383.390625 792.34375 1356.949219 C 894.957031 1348.390625 1008.941406 1337.628906 1045.640625 1333.058594 L 1112.359375 1324.730469 L 879.554688 1035.769531 C 751.511719 876.839844 599.460938 680.421875 541.667969 599.269531 C 483.871094 518.128906 431.0625 448.320312 424.308594 444.148438 C 417.554688 439.980469 412.027344 430.410156 412.027344 422.890625 C 412.027344 415.371094 462.078125 450.78125 523.253906 501.589844 C 733.703125 676.351562 990.222656 890.570312 1140.191406 1016.800781 C 1222.839844 1086.359375 1292.660156 1141.070312 1295.351562 1138.378906 C 1298.039062 1135.691406 1310.550781 1017.421875 1323.140625 875.570312 C 1349.96875 573.480469 1412.691406 -20.269531 1415.578125 0.53125 C 1467.691406 375.320312 1517.101562 890.101562 1517.101562 1058.398438 C 1517.101562 1104.089844 1522.03125 1141.480469 1528.058594 1141.480469 C 1534.089844 1141.480469 1580.910156 1103.960938 1632.109375 1058.101562 C 1683.308594 1012.25 1844.671875 875.558594 1990.691406 754.351562 C 2136.71875 633.148438 2293.328125 502.308594 2338.71875 463.609375 C 2384.109375 424.898438 2421.238281 397.109375 2421.238281 401.839844 C 2421.238281 411.789062 2180.199219 722.058594 1969.269531 983.609375 C 1889.699219 1082.28125 1797.609375 1199.570312 1764.628906 1244.25 L 1704.648438 1325.488281 L 1772.328125 1333.511719 C 1809.550781 1337.921875 1923.960938 1348.601562 2026.570312 1357.238281 C 2129.191406 1365.890625 2332.621094 1385.46875 2478.648438 1400.761719 C 2624.679688 1416.050781 2766.75 1429.269531 2794.378906 1430.140625 C 2842.25 1431.640625 2841.578125 1432.28125 2780.03125 1443.640625 C 2744.511719 1450.191406 2492.640625 1475.609375 2220.320312 1500.128906 C 1948 1524.640625 1713.929688 1548.039062 1700.171875 1552.121094 C 1680.261719 1558.03125 1708.308594 1598.230469 1837.371094 1748.769531 C 2111.621094 2068.652344 2412.929688 2437.585938 2443.160156 2490.519531 C 2458.769531 2517.851562 2496.769531 2548.359375 1967.160156 2108.363281 L 1533.070312 1747.738281 L 1524.910156 1821.339844 C 1520.429688 1861.808594 1507.101562 2027.324219 1495.289062 2189.140625 C 1483.488281 2350.953125 1464.289062 2576.988281 1452.621094 2691.441406 C 1440.949219 2805.894531 1429.429688 2922.144531 1427.011719 2949.769531 L 1422.609375 3000 Z M 1412.890625 2949.769531 "/>
</svg>
